<svg xmlns="http://www.w3.org/2000/svg" viewBox="0 0 120 120" fill="none">
  <rect width="120" height="120" rx="24" fill="#1D1D1F"/>
  <path d="M72 28c-1.2 0-2.4.1-3.5.4-12 3-20 9-25.6 19-3 5.4-4.6 12-4 19.6.7 9 4.3 16.3 10 22.2 5.3 5.3 11.6 8.7 19.2 9.6 1 .1 2 .2 3 .2 13 0 23.3-7.3 28.6-18 .3-.6.2-1-.5-1H90c-.4 0-.7.2-.9.5-4 6.3-10 10.3-17.6 10.3-3 0-5.8-.7-8.3-2-6.3-3.3-10.3-9-11.3-16.3-1.3-9.6 4-18.3 11.6-22.3 3.3-1.7 6.9-2.5 10.6-2.2 6.3.5 11.6 3.3 15.3 8.6.3.5.7.7 1.2.7h8.6c.7 0 .8-.3.5-1-8.3-15-17-21-30-22.2-1-.1-2-.2-3-.2h6z" fill="white"/>
  <text x="60" y="98" text-anchor="middle" font-family="Arial, Helvetica, sans-serif" font-weight="600" font-size="16" fill="#999">Apple</text>
</svg>